<?xml version="1.0" encoding="utf-8"?>
<!-- Generator: Adobe Illustrator 23.0.1, SVG Export Plug-In . SVG Version: 6.00 Build 0)  -->
<svg version="1.1" id="Layer_1" xmlns="http://www.w3.org/2000/svg" xmlns:xlink="http://www.w3.org/1999/xlink" x="0px" y="0px"
	 viewBox="0 0 1000 1000" enable-background="new 0 0 1000 1000" xml:space="preserve">
<g>
	<path fill="#F8991D" d="M806.9,771C460.8,935.8,246,797.9,108.5,714.2c-8.5-5.3-23,1.2-10.4,15.6
		c45.8,55.5,195.9,189.4,391.9,189.4c196.1,0,312.8-107,327.4-125.7C831.8,775.1,821.5,764.9,806.9,771L806.9,771z M904.1,717.3
		c-9.3-12.1-56.5-14.4-86.2-10.7c-29.8,3.5-74.4,21.7-70.6,32.7c2,4.1,6.1,2.3,26.5,0.4c20.5-2,77.9-9.3,89.9,6.4
		c12,15.8-18.3,90.8-23.9,102.9c-5.4,12.1,2,15.2,12.1,7.2c9.9-8.1,27.9-28.9,39.9-58.5C903.9,768,911.2,726.6,904.1,717.3
		L904.1,717.3z"/>
	<path fill-rule="evenodd" clip-rule="evenodd" fill="#010101" d="M574.2,434.9c0,43.2,1.1,79.3-20.8,117.7
		c-17.6,31.2-45.6,50.4-76.8,50.4c-42.6,0-67.4-32.5-67.4-80.4c0-94.6,84.7-111.7,164.9-111.7V434.9z M686,705.3
		c-7.3,6.6-17.9,7-26.2,2.7c-36.8-30.6-43.4-44.8-63.7-74c-60.9,62.1-103.9,80.7-182.9,80.7c-93.3,0-166-57.6-166-172.9
		c0-90,48.8-151.4,118.3-181.3c60.2-26.5,144.3-31.2,208.6-38.5v-14.4c0-26.4,2-57.6-13.4-80.4c-13.6-20.4-39.5-28.9-62.3-28.9
		c-42.3,0-80,21.7-89.3,66.6c-1.9,10-9.2,19.8-19.2,20.3l-107.7-11.5c-9-2-19-9.4-16.5-23.3C290.6,120,408.4,80.7,513.9,80.7
		c54,0,124.5,14.4,167.1,55.2c54,50.4,48.8,117.7,48.8,190.8v172.9c0,52,21.5,74.7,41.8,102.8c7.2,10,8.7,22-0.3,29.5
		c-22.6,18.9-62.9,54-85,73.7L686,705.3"/>
	<path fill="#F8991D" d="M806.9,771C460.8,935.8,246,797.9,108.5,714.2c-8.5-5.3-23,1.2-10.4,15.6
		c45.8,55.5,195.9,189.4,391.9,189.4c196.1,0,312.8-107,327.4-125.7C831.8,775.1,821.5,764.9,806.9,771L806.9,771z M904.1,717.3
		c-9.3-12.1-56.5-14.4-86.2-10.7c-29.8,3.5-74.4,21.7-70.6,32.7c2,4.1,6.1,2.3,26.5,0.4c20.5-2,77.9-9.3,89.9,6.4
		c12,15.8-18.3,90.8-23.9,102.9c-5.4,12.1,2,15.2,12.1,7.2c9.9-8.1,27.9-28.9,39.9-58.5C903.9,768,911.2,726.6,904.1,717.3
		L904.1,717.3z"/>
	<path fill-rule="evenodd" clip-rule="evenodd" fill="#010101" d="M574.2,434.9c0,43.2,1.1,79.3-20.8,117.7
		c-17.6,31.2-45.6,50.4-76.8,50.4c-42.6,0-67.4-32.5-67.4-80.4c0-94.6,84.7-111.7,164.9-111.7V434.9z M686,705.3
		c-7.3,6.6-17.9,7-26.2,2.7c-36.8-30.6-43.4-44.8-63.7-74c-60.9,62.1-103.9,80.7-182.9,80.7c-93.3,0-166-57.6-166-172.9
		c0-90,48.8-151.4,118.3-181.3c60.2-26.5,144.3-31.2,208.6-38.5v-14.4c0-26.4,2-57.6-13.4-80.4c-13.6-20.4-39.5-28.9-62.3-28.9
		c-42.3,0-80,21.7-89.3,66.6c-1.9,10-9.2,19.8-19.2,20.3l-107.7-11.5c-9-2-19-9.4-16.5-23.3C290.6,120,408.4,80.7,513.9,80.7
		c54,0,124.5,14.4,167.1,55.2c54,50.4,48.8,117.7,48.8,190.8v172.9c0,52,21.5,74.7,41.8,102.8c7.2,10,8.7,22-0.3,29.5
		c-22.6,18.9-62.9,54-85,73.7L686,705.3"/>
</g>
</svg>
